<svg xmlns="http://www.w3.org/2000/svg" width="1050" height="310" viewBox="0 0 1050 310">
<rect width="100%" height="100%" fill="white"/>
<g font-family="Arial, sans-serif" fill="#263746">
<text x="90" y="30" font-size="20" font-weight="600">Actual maximum line loading</text>
<text x="90" y="64" font-size="14" font-weight="600">Actual maximum line loading (%)</text>
<line x1="90" x2="960" y1="220.00" y2="220.00" stroke="#dde3e9"/>
<text x="80" y="224.00" text-anchor="end" font-size="11">54.9</text>
<line x1="90" x2="960" y1="183.75" y2="183.75" stroke="#dde3e9"/>
<text x="80" y="187.75" text-anchor="end" font-size="11">62.9</text>
<line x1="90" x2="960" y1="147.50" y2="147.50" stroke="#dde3e9"/>
<text x="80" y="151.50" text-anchor="end" font-size="11">71</text>
<line x1="90" x2="960" y1="111.25" y2="111.25" stroke="#dde3e9"/>
<text x="80" y="115.25" text-anchor="end" font-size="11">79</text>
<line x1="90" x2="960" y1="75.00" y2="75.00" stroke="#dde3e9"/>
<text x="80" y="79.00" text-anchor="end" font-size="11">87</text>
<circle cx="90.00" cy="162.30" r="2.2" fill="#255b88"><title>B1 May 1: 67.682616</title></circle>
<circle cx="119.00" cy="163.77" r="2.2" fill="#255b88"><title>B1 May 2: 67.35877</title></circle>
<circle cx="148.00" cy="197.37" r="2.2" fill="#255b88"><title>B1 May 3: 59.934288</title></circle>
<circle cx="177.00" cy="205.97" r="2.2" fill="#255b88"><title>B1 May 4: 58.033987</title></circle>
<circle cx="206.00" cy="199.10" r="2.2" fill="#255b88"><title>B1 May 5: 59.551753</title></circle>
<circle cx="235.00" cy="197.16" r="2.2" fill="#255b88"><title>B1 May 6: 59.97937</title></circle>
<circle cx="264.00" cy="174.64" r="2.2" fill="#255b88"><title>B1 May 7: 64.957466</title></circle>
<circle cx="293.00" cy="156.42" r="2.2" fill="#255b88"><title>B1 May 8: 68.983423</title></circle>
<circle cx="322.00" cy="162.55" r="2.2" fill="#255b88"><title>B1 May 9: 67.627835</title></circle>
<circle cx="351.00" cy="179.44" r="2.2" fill="#255b88"><title>B1 May 10: 63.895533</title></circle>
<circle cx="380.00" cy="191.63" r="2.2" fill="#255b88"><title>B1 May 11: 61.202236</title></circle>
<circle cx="409.00" cy="166.37" r="2.2" fill="#255b88"><title>B1 May 12: 66.782982</title></circle>
<circle cx="438.00" cy="166.94" r="2.2" fill="#255b88"><title>B1 May 13: 66.657861</title></circle>
<circle cx="467.00" cy="166.25" r="2.2" fill="#255b88"><title>B1 May 14: 66.809317</title></circle>
<circle cx="496.00" cy="154.05" r="2.2" fill="#255b88"><title>B1 May 15: 69.505377</title></circle>
<circle cx="525.00" cy="149.62" r="2.2" fill="#255b88"><title>B1 May 16: 70.484675</title></circle>
<circle cx="554.00" cy="159.42" r="2.2" fill="#255b88"><title>B1 May 17: 68.320295</title></circle>
<circle cx="583.00" cy="141.87" r="2.2" fill="#255b88"><title>B1 May 18: 72.197023</title></circle>
<circle cx="612.00" cy="100.11" r="2.2" fill="#255b88"><title>B1 May 19: 81.425114</title></circle>
<circle cx="641.00" cy="95.74" r="2.2" fill="#255b88"><title>B1 May 20: 82.389524</title></circle>
<circle cx="670.00" cy="89.03" r="2.2" fill="#255b88"><title>B1 May 21: 83.872803</title></circle>
<circle cx="699.00" cy="107.25" r="2.2" fill="#255b88"><title>B1 May 22: 79.846521</title></circle>
<circle cx="728.00" cy="129.58" r="2.2" fill="#255b88"><title>B1 May 23: 74.914028</title></circle>
<circle cx="757.00" cy="194.32" r="2.2" fill="#255b88"><title>B1 May 24: 60.606839</title></circle>
<circle cx="786.00" cy="176.77" r="2.2" fill="#255b88"><title>B1 May 25: 64.485148</title></circle>
<circle cx="815.00" cy="169.58" r="2.2" fill="#255b88"><title>B1 May 26: 66.073423</title></circle>
<circle cx="844.00" cy="135.58" r="2.2" fill="#255b88"><title>B1 May 27: 73.587671</title></circle>
<circle cx="873.00" cy="139.28" r="2.2" fill="#255b88"><title>B1 May 28: 72.770648</title></circle>
<circle cx="902.00" cy="148.88" r="2.2" fill="#255b88"><title>B1 May 29: 70.647403</title></circle>
<circle cx="931.00" cy="153.39" r="2.2" fill="#255b88"><title>B1 May 30: 69.652457</title></circle>
<circle cx="960.00" cy="158.94" r="2.2" fill="#255b88"><title>B1 May 31: 68.426128</title></circle>
<polyline points="90.00,162.30 119.00,163.77 148.00,197.37 177.00,205.97 206.00,199.10 235.00,197.16 264.00,174.64 293.00,156.42 322.00,162.55 351.00,179.44 380.00,191.63 409.00,166.37 438.00,166.94 467.00,166.25 496.00,154.05 525.00,149.62 554.00,159.42 583.00,141.87 612.00,100.11 641.00,95.74 670.00,89.03 699.00,107.25 728.00,129.58 757.00,194.32 786.00,176.77 815.00,169.58 844.00,135.58 873.00,139.28 902.00,148.88 931.00,153.39 960.00,158.94" fill="none" stroke="#255b88" stroke-width="1.8"/>
<text x="90" y="249" font-size="12" fill="#255b88">B1</text>
<text x="300" y="249" font-size="12" fill="#c04d27">B2</text>
<text x="510" y="249" font-size="12" fill="#298067">B3</text>
<text x="90.00" y="236" text-anchor="middle" font-size="10">1</text>
<text x="119.00" y="236" text-anchor="middle" font-size="10">2</text>
<text x="148.00" y="236" text-anchor="middle" font-size="10">3</text>
<text x="177.00" y="236" text-anchor="middle" font-size="10">4</text>
<text x="206.00" y="236" text-anchor="middle" font-size="10">5</text>
<text x="235.00" y="236" text-anchor="middle" font-size="10">6</text>
<text x="264.00" y="236" text-anchor="middle" font-size="10">7</text>
<text x="293.00" y="236" text-anchor="middle" font-size="10">8</text>
<text x="322.00" y="236" text-anchor="middle" font-size="10">9</text>
<text x="351.00" y="236" text-anchor="middle" font-size="10">10</text>
<text x="380.00" y="236" text-anchor="middle" font-size="10">11</text>
<text x="409.00" y="236" text-anchor="middle" font-size="10">12</text>
<text x="438.00" y="236" text-anchor="middle" font-size="10">13</text>
<text x="467.00" y="236" text-anchor="middle" font-size="10">14</text>
<text x="496.00" y="236" text-anchor="middle" font-size="10">15</text>
<text x="525.00" y="236" text-anchor="middle" font-size="10">16</text>
<text x="554.00" y="236" text-anchor="middle" font-size="10">17</text>
<text x="583.00" y="236" text-anchor="middle" font-size="10">18</text>
<text x="612.00" y="236" text-anchor="middle" font-size="10">19</text>
<text x="641.00" y="236" text-anchor="middle" font-size="10">20</text>
<text x="670.00" y="236" text-anchor="middle" font-size="10">21</text>
<text x="699.00" y="236" text-anchor="middle" font-size="10">22</text>
<text x="728.00" y="236" text-anchor="middle" font-size="10">23</text>
<text x="757.00" y="236" text-anchor="middle" font-size="10">24</text>
<text x="786.00" y="236" text-anchor="middle" font-size="10">25</text>
<text x="815.00" y="236" text-anchor="middle" font-size="10">26</text>
<text x="844.00" y="236" text-anchor="middle" font-size="10">27</text>
<text x="873.00" y="236" text-anchor="middle" font-size="10">28</text>
<text x="902.00" y="236" text-anchor="middle" font-size="10">29</text>
<text x="931.00" y="236" text-anchor="middle" font-size="10">30</text>
<text x="960.00" y="236" text-anchor="middle" font-size="10">31</text>
<text x="90" y="296" font-size="11" fill="#64748b">May 2025 day · Missing values remain gaps; transformer loading is excluded from the line metric.</text>
</g></svg>
