<?xml version="1.0" encoding="utf-8" standalone="no"?>
<!DOCTYPE svg PUBLIC "-//W3C//DTD SVG 1.1//EN"
  "http://www.w3.org/Graphics/SVG/1.1/DTD/svg11.dtd">
<svg xmlns:xlink="http://www.w3.org/1999/xlink" width="671.466406pt" height="309.998906pt" viewBox="0 0 671.466406 309.998906" xmlns="http://www.w3.org/2000/svg" version="1.1">
 <metadata>
  <rdf:RDF xmlns:dc="http://purl.org/dc/elements/1.1/" xmlns:cc="http://creativecommons.org/ns#" xmlns:rdf="http://www.w3.org/1999/02/22-rdf-syntax-ns#">
   <cc:Work>
    <dc:type rdf:resource="http://purl.org/dc/dcmitype/StillImage"/>
    <dc:date>2026-10-09T23:04:24.551438</dc:date>
    <dc:format>image/svg+xml</dc:format>
    <dc:creator>
     <cc:Agent>
      <dc:title>Matplotlib v3.11.2, https://matplotlib.org/</dc:title>
     </cc:Agent>
    </dc:creator>
   </cc:Work>
  </rdf:RDF>
 </metadata>
 <defs>
  <style type="text/css">*{stroke-linejoin: round; stroke-linecap: butt}</style>
 </defs>
 <g id="figure_1">
  <g id="patch_1">
   <path d="M -0 309.998906 
L 671.466406 309.998906 
L 671.466406 0 
L -0 0 
z
" style="fill: #ffffff"/>
  </g>
  <g id="axes_1">
   <g id="patch_2">
    <path d="M 44.103906 271.798125 
L 657.903906 271.798125 
L 657.903906 22.318125 
L 44.103906 22.318125 
z
" style="fill: #ffffff"/>
   </g>
   <g id="matplotlib.axis_1">
    <g id="xtick_1">
     <g id="line2d_1">
      <path d="M 44.103906 271.798125 
L 44.103906 22.318125 
" clip-path="url(#p50dc8161ae)" style="fill: none; stroke: #b0b0b0; stroke-opacity: 0.22; stroke-width: 0.8; stroke-linecap: square"/>
     </g>
     <g id="line2d_2">
      <defs>
       <path id="mcac4cf9c8b" d="M 0 0 
L 0 3.5 
" style="stroke: #000000; stroke-width: 0.8"/>
      </defs>
      <g>
       <use xlink:href="#mcac4cf9c8b" x="44.103906" y="271.798125" style="stroke: #000000; stroke-width: 0.8"/>
      </g>
     </g>
     <g id="text_1">
      <text style="font-size: 10px; font-family: 'DejaVu Sans'; text-anchor: middle" x="44.103906" y="286.395781" transform="rotate(-0 44.103906 286.395781)">0</text>
     </g>
    </g>
    <g id="xtick_2">
     <g id="line2d_3">
      <path d="M 120.828906 271.798125 
L 120.828906 22.318125 
" clip-path="url(#p50dc8161ae)" style="fill: none; stroke: #b0b0b0; stroke-opacity: 0.22; stroke-width: 0.8; stroke-linecap: square"/>
     </g>
     <g id="line2d_4">
      <g>
       <use xlink:href="#mcac4cf9c8b" x="120.828906" y="271.798125" style="stroke: #000000; stroke-width: 0.8"/>
      </g>
     </g>
     <g id="text_2">
      <text style="font-size: 10px; font-family: 'DejaVu Sans'; text-anchor: middle" x="120.828906" y="286.395781" transform="rotate(-0 120.828906 286.395781)">3</text>
     </g>
    </g>
    <g id="xtick_3">
     <g id="line2d_5">
      <path d="M 197.553906 271.798125 
L 197.553906 22.318125 
" clip-path="url(#p50dc8161ae)" style="fill: none; stroke: #b0b0b0; stroke-opacity: 0.22; stroke-width: 0.8; stroke-linecap: square"/>
     </g>
     <g id="line2d_6">
      <g>
       <use xlink:href="#mcac4cf9c8b" x="197.553906" y="271.798125" style="stroke: #000000; stroke-width: 0.8"/>
      </g>
     </g>
     <g id="text_3">
      <text style="font-size: 10px; font-family: 'DejaVu Sans'; text-anchor: middle" x="197.553906" y="286.395781" transform="rotate(-0 197.553906 286.395781)">6</text>
     </g>
    </g>
    <g id="xtick_4">
     <g id="line2d_7">
      <path d="M 274.278906 271.798125 
L 274.278906 22.318125 
" clip-path="url(#p50dc8161ae)" style="fill: none; stroke: #b0b0b0; stroke-opacity: 0.22; stroke-width: 0.8; stroke-linecap: square"/>
     </g>
     <g id="line2d_8">
      <g>
       <use xlink:href="#mcac4cf9c8b" x="274.278906" y="271.798125" style="stroke: #000000; stroke-width: 0.8"/>
      </g>
     </g>
     <g id="text_4">
      <text style="font-size: 10px; font-family: 'DejaVu Sans'; text-anchor: middle" x="274.278906" y="286.395781" transform="rotate(-0 274.278906 286.395781)">9</text>
     </g>
    </g>
    <g id="xtick_5">
     <g id="line2d_9">
      <path d="M 351.003906 271.798125 
L 351.003906 22.318125 
" clip-path="url(#p50dc8161ae)" style="fill: none; stroke: #b0b0b0; stroke-opacity: 0.22; stroke-width: 0.8; stroke-linecap: square"/>
     </g>
     <g id="line2d_10">
      <g>
       <use xlink:href="#mcac4cf9c8b" x="351.003906" y="271.798125" style="stroke: #000000; stroke-width: 0.8"/>
      </g>
     </g>
     <g id="text_5">
      <text style="font-size: 10px; font-family: 'DejaVu Sans'; text-anchor: middle" x="351.003906" y="286.395781" transform="rotate(-0 351.003906 286.395781)">12</text>
     </g>
    </g>
    <g id="xtick_6">
     <g id="line2d_11">
      <path d="M 427.728906 271.798125 
L 427.728906 22.318125 
" clip-path="url(#p50dc8161ae)" style="fill: none; stroke: #b0b0b0; stroke-opacity: 0.22; stroke-width: 0.8; stroke-linecap: square"/>
     </g>
     <g id="line2d_12">
      <g>
       <use xlink:href="#mcac4cf9c8b" x="427.728906" y="271.798125" style="stroke: #000000; stroke-width: 0.8"/>
      </g>
     </g>
     <g id="text_6">
      <text style="font-size: 10px; font-family: 'DejaVu Sans'; text-anchor: middle" x="427.728906" y="286.395781" transform="rotate(-0 427.728906 286.395781)">15</text>
     </g>
    </g>
    <g id="xtick_7">
     <g id="line2d_13">
      <path d="M 504.453906 271.798125 
L 504.453906 22.318125 
" clip-path="url(#p50dc8161ae)" style="fill: none; stroke: #b0b0b0; stroke-opacity: 0.22; stroke-width: 0.8; stroke-linecap: square"/>
     </g>
     <g id="line2d_14">
      <g>
       <use xlink:href="#mcac4cf9c8b" x="504.453906" y="271.798125" style="stroke: #000000; stroke-width: 0.8"/>
      </g>
     </g>
     <g id="text_7">
      <text style="font-size: 10px; font-family: 'DejaVu Sans'; text-anchor: middle" x="504.453906" y="286.395781" transform="rotate(-0 504.453906 286.395781)">18</text>
     </g>
    </g>
    <g id="xtick_8">
     <g id="line2d_15">
      <path d="M 581.178906 271.798125 
L 581.178906 22.318125 
" clip-path="url(#p50dc8161ae)" style="fill: none; stroke: #b0b0b0; stroke-opacity: 0.22; stroke-width: 0.8; stroke-linecap: square"/>
     </g>
     <g id="line2d_16">
      <g>
       <use xlink:href="#mcac4cf9c8b" x="581.178906" y="271.798125" style="stroke: #000000; stroke-width: 0.8"/>
      </g>
     </g>
     <g id="text_8">
      <text style="font-size: 10px; font-family: 'DejaVu Sans'; text-anchor: middle" x="581.178906" y="286.395781" transform="rotate(-0 581.178906 286.395781)">21</text>
     </g>
    </g>
    <g id="xtick_9">
     <g id="line2d_17">
      <path d="M 657.903906 271.798125 
L 657.903906 22.318125 
" clip-path="url(#p50dc8161ae)" style="fill: none; stroke: #b0b0b0; stroke-opacity: 0.22; stroke-width: 0.8; stroke-linecap: square"/>
     </g>
     <g id="line2d_18">
      <g>
       <use xlink:href="#mcac4cf9c8b" x="657.903906" y="271.798125" style="stroke: #000000; stroke-width: 0.8"/>
      </g>
     </g>
     <g id="text_9">
      <text style="font-size: 10px; font-family: 'DejaVu Sans'; text-anchor: middle" x="657.903906" y="286.395781" transform="rotate(-0 657.903906 286.395781)">24</text>
     </g>
    </g>
    <g id="text_10">
     <text style="font-size: 10px; font-family: 'DejaVu Sans'; text-anchor: middle" x="351.003906" y="300.396563" transform="rotate(-0 351.003906 300.396563)">Interval start (fixed AEST, hours)</text>
    </g>
   </g>
   <g id="matplotlib.axis_2">
    <g id="ytick_1">
     <g id="line2d_19">
      <path d="M 44.103906 260.414544 
L 657.903906 260.414544 
" clip-path="url(#p50dc8161ae)" style="fill: none; stroke: #b0b0b0; stroke-opacity: 0.22; stroke-width: 0.8; stroke-linecap: square"/>
     </g>
     <g id="line2d_20">
      <defs>
       <path id="m259d95cd23" d="M 0 0 
L -3.5 0 
" style="stroke: #000000; stroke-width: 0.8"/>
      </defs>
      <g>
       <use xlink:href="#m259d95cd23" x="44.103906" y="260.414544" style="stroke: #000000; stroke-width: 0.8"/>
      </g>
     </g>
     <g id="text_11">
      <text style="font-size: 10px; font-family: 'DejaVu Sans'; text-anchor: end" x="37.103906" y="264.213373" transform="rotate(-0 37.103906 264.213373)">0.3</text>
     </g>
    </g>
    <g id="ytick_2">
     <g id="line2d_21">
      <path d="M 44.103906 228.02077 
L 657.903906 228.02077 
" clip-path="url(#p50dc8161ae)" style="fill: none; stroke: #b0b0b0; stroke-opacity: 0.22; stroke-width: 0.8; stroke-linecap: square"/>
     </g>
     <g id="line2d_22">
      <g>
       <use xlink:href="#m259d95cd23" x="44.103906" y="228.02077" style="stroke: #000000; stroke-width: 0.8"/>
      </g>
     </g>
     <g id="text_12">
      <text style="font-size: 10px; font-family: 'DejaVu Sans'; text-anchor: end" x="37.103906" y="231.819598" transform="rotate(-0 37.103906 231.819598)">0.4</text>
     </g>
    </g>
    <g id="ytick_3">
     <g id="line2d_23">
      <path d="M 44.103906 195.626996 
L 657.903906 195.626996 
" clip-path="url(#p50dc8161ae)" style="fill: none; stroke: #b0b0b0; stroke-opacity: 0.22; stroke-width: 0.8; stroke-linecap: square"/>
     </g>
     <g id="line2d_24">
      <g>
       <use xlink:href="#m259d95cd23" x="44.103906" y="195.626996" style="stroke: #000000; stroke-width: 0.8"/>
      </g>
     </g>
     <g id="text_13">
      <text style="font-size: 10px; font-family: 'DejaVu Sans'; text-anchor: end" x="37.103906" y="199.425824" transform="rotate(-0 37.103906 199.425824)">0.5</text>
     </g>
    </g>
    <g id="ytick_4">
     <g id="line2d_25">
      <path d="M 44.103906 163.233222 
L 657.903906 163.233222 
" clip-path="url(#p50dc8161ae)" style="fill: none; stroke: #b0b0b0; stroke-opacity: 0.22; stroke-width: 0.8; stroke-linecap: square"/>
     </g>
     <g id="line2d_26">
      <g>
       <use xlink:href="#m259d95cd23" x="44.103906" y="163.233222" style="stroke: #000000; stroke-width: 0.8"/>
      </g>
     </g>
     <g id="text_14">
      <text style="font-size: 10px; font-family: 'DejaVu Sans'; text-anchor: end" x="37.103906" y="167.03205" transform="rotate(-0 37.103906 167.03205)">0.6</text>
     </g>
    </g>
    <g id="ytick_5">
     <g id="line2d_27">
      <path d="M 44.103906 130.839448 
L 657.903906 130.839448 
" clip-path="url(#p50dc8161ae)" style="fill: none; stroke: #b0b0b0; stroke-opacity: 0.22; stroke-width: 0.8; stroke-linecap: square"/>
     </g>
     <g id="line2d_28">
      <g>
       <use xlink:href="#m259d95cd23" x="44.103906" y="130.839448" style="stroke: #000000; stroke-width: 0.8"/>
      </g>
     </g>
     <g id="text_15">
      <text style="font-size: 10px; font-family: 'DejaVu Sans'; text-anchor: end" x="37.103906" y="134.638276" transform="rotate(-0 37.103906 134.638276)">0.7</text>
     </g>
    </g>
    <g id="ytick_6">
     <g id="line2d_29">
      <path d="M 44.103906 98.445673 
L 657.903906 98.445673 
" clip-path="url(#p50dc8161ae)" style="fill: none; stroke: #b0b0b0; stroke-opacity: 0.22; stroke-width: 0.8; stroke-linecap: square"/>
     </g>
     <g id="line2d_30">
      <g>
       <use xlink:href="#m259d95cd23" x="44.103906" y="98.445673" style="stroke: #000000; stroke-width: 0.8"/>
      </g>
     </g>
     <g id="text_16">
      <text style="font-size: 10px; font-family: 'DejaVu Sans'; text-anchor: end" x="37.103906" y="102.244502" transform="rotate(-0 37.103906 102.244502)">0.8</text>
     </g>
    </g>
    <g id="ytick_7">
     <g id="line2d_31">
      <path d="M 44.103906 66.051899 
L 657.903906 66.051899 
" clip-path="url(#p50dc8161ae)" style="fill: none; stroke: #b0b0b0; stroke-opacity: 0.22; stroke-width: 0.8; stroke-linecap: square"/>
     </g>
     <g id="line2d_32">
      <g>
       <use xlink:href="#m259d95cd23" x="44.103906" y="66.051899" style="stroke: #000000; stroke-width: 0.8"/>
      </g>
     </g>
     <g id="text_17">
      <text style="font-size: 10px; font-family: 'DejaVu Sans'; text-anchor: end" x="37.103906" y="69.850727" transform="rotate(-0 37.103906 69.850727)">0.9</text>
     </g>
    </g>
    <g id="ytick_8">
     <g id="line2d_33">
      <path d="M 44.103906 33.658125 
L 657.903906 33.658125 
" clip-path="url(#p50dc8161ae)" style="fill: none; stroke: #b0b0b0; stroke-opacity: 0.22; stroke-width: 0.8; stroke-linecap: square"/>
     </g>
     <g id="line2d_34">
      <g>
       <use xlink:href="#m259d95cd23" x="44.103906" y="33.658125" style="stroke: #000000; stroke-width: 0.8"/>
      </g>
     </g>
     <g id="text_18">
      <text style="font-size: 10px; font-family: 'DejaVu Sans'; text-anchor: end" x="37.103906" y="37.456953" transform="rotate(-0 37.103906 37.456953)">1.0</text>
     </g>
    </g>
    <g id="text_19">
     <text style="font-size: 10px; font-family: 'DejaVu Sans'; text-anchor: middle" x="14.798438" y="147.058125" transform="rotate(-90 14.798438 147.058125)">Maximum current / original NormalAmps (pu)</text>
    </g>
   </g>
   <g id="line2d_35">
    <path d="M 44.103906 55.610826 
L 50.497656 55.965765 
L 56.891406 56.25702 
L 63.285156 56.2715 
L 69.678906 56.061682 
L 76.072656 56.061682 
L 82.466406 56.296799 
L 88.860156 56.296798 
L 95.253906 56.461351 
L 101.647656 56.461351 
L 108.041406 56.557003 
L 114.435156 56.557003 
L 120.828906 56.600006 
L 127.222656 56.600006 
L 133.616406 56.600733 
L 140.010156 56.600733 
L 146.403906 56.519768 
L 152.797656 56.519768 
L 159.191406 56.361285 
L 165.585156 56.361285 
L 171.978906 56.037416 
L 178.372656 56.037416 
L 184.766406 55.645891 
L 191.160156 55.645891 
L 197.553906 54.998206 
L 203.947656 54.998206 
L 210.341406 54.454746 
L 216.735156 54.454746 
L 223.128906 54.505906 
L 229.522656 54.505906 
L 235.916406 57.478412 
L 242.310156 57.478412 
L 248.703906 62.361824 
L 255.097656 62.361824 
L 261.491406 67.891459 
L 267.885156 67.891458 
L 274.278906 73.226899 
L 280.672656 73.226899 
L 287.066406 77.650139 
L 293.460156 77.650138 
L 299.853906 81.251066 
L 306.247656 81.251066 
L 312.641406 83.855155 
L 319.035156 82.695276 
L 325.428906 85.108636 
L 331.822656 85.177374 
L 338.216406 86.165962 
L 344.610156 86.181945 
L 351.003906 86.435835 
L 357.397656 83.308692 
L 363.791406 83.04013 
L 370.185156 83.054075 
L 376.578906 81.638496 
L 382.972656 81.858128 
L 389.366406 80.062164 
L 395.760156 80.079778 
L 402.153906 76.965683 
L 408.547656 77.200511 
L 414.941406 73.657931 
L 421.335156 73.678088 
L 427.728906 69.222709 
L 434.122656 69.316167 
L 440.516406 68.258786 
L 446.910156 68.273925 
L 453.303906 62.991175 
L 459.697656 63.094771 
L 466.091406 58.242579 
L 472.485156 58.255643 
L 478.878906 54.528908 
L 485.272656 54.594115 
L 491.666406 56.035176 
L 498.060156 56.045141 
L 504.453906 55.746763 
L 510.847656 55.761204 
L 517.241406 55.760817 
L 523.635156 55.768269 
L 530.028906 55.878792 
L 536.422656 55.902515 
L 542.816406 56.063617 
L 549.210156 56.069436 
L 555.603906 56.275812 
L 561.997656 56.302311 
L 568.391406 56.554924 
L 574.785156 56.559865 
L 581.178906 56.802806 
L 587.572656 56.812703 
L 593.966406 57.180106 
L 600.360156 57.185034 
L 606.753906 55.427356 
L 613.147656 55.49435 
L 619.541406 56.027369 
L 625.935156 56.034248 
L 632.328906 55.958376 
L 638.722656 53.108655 
L 645.116406 53.346214 
L 651.510156 53.354529 
" clip-path="url(#p50dc8161ae)" style="fill: none; stroke: #232f40; stroke-width: 1.5; stroke-linecap: square"/>
   </g>
   <g id="line2d_36">
    <path d="M 44.103906 209.544141 
L 50.497656 211.40201 
L 56.891406 215.005782 
L 63.285156 215.081414 
L 69.678906 215.404447 
L 76.072656 215.404447 
L 82.466406 218.24445 
L 88.860156 218.24445 
L 95.253906 220.333376 
L 101.647656 220.333376 
L 108.041406 221.545534 
L 114.435156 221.545534 
L 120.828906 222.089978 
L 127.222656 222.089978 
L 133.616406 222.099188 
L 140.010156 222.099188 
L 146.403906 221.073855 
L 152.797656 221.073855 
L 159.191406 219.063624 
L 165.585156 219.063624 
L 171.978906 214.942471 
L 178.372656 214.942471 
L 184.766406 209.802406 
L 191.160156 209.802406 
L 197.553906 201.520849 
L 203.947656 201.520849 
L 210.341406 193.933721 
L 216.735156 193.933721 
L 223.128906 188.918452 
L 229.522656 188.918452 
L 235.916406 189.987341 
L 242.310156 189.987341 
L 248.703906 196.129538 
L 255.097656 196.129538 
L 261.491406 206.221057 
L 267.885156 206.221057 
L 274.278906 215.834261 
L 280.672656 215.834261 
L 287.066406 224.90722 
L 293.460156 224.90722 
L 299.853906 232.194979 
L 306.247656 232.194979 
L 312.641406 238.949428 
L 319.035156 244.765351 
L 325.428906 255.152249 
L 331.822656 255.541695 
L 338.216406 259.083971 
L 344.610156 259.17429 
L 351.003906 259.836483 
L 357.397656 260.257388 
L 363.791406 260.375695 
L 370.185156 260.458125 
L 376.578906 257.099798 
L 382.972656 258.272712 
L 389.366406 256.354734 
L 395.760156 256.457782 
L 402.153906 248.969034 
L 408.547656 250.184729 
L 414.941406 244.086532 
L 421.335156 244.201833 
L 427.728906 236.397346 
L 434.122656 236.924196 
L 440.516406 227.656855 
L 446.910156 227.743145 
L 453.303906 218.032081 
L 459.697656 218.610681 
L 466.091406 208.566198 
L 472.485156 208.64047 
L 478.878906 197.825957 
L 485.272656 198.192458 
L 491.666406 190.226996 
L 498.060156 190.284911 
L 504.453906 186.043023 
L 510.847656 186.127249 
L 517.241406 186.054315 
L 523.635156 186.097789 
L 530.028906 187.658794 
L 536.422656 187.796286 
L 542.816406 189.971508 
L 549.210156 190.005366 
L 555.603906 193.103125 
L 561.997656 193.256898 
L 568.391406 196.260411 
L 574.785156 196.28636 
L 581.178906 199.520357 
L 587.572656 199.57199 
L 593.966406 204.204542 
L 600.360156 204.230017 
L 606.753906 208.521246 
L 613.147656 208.859878 
L 619.541406 212.666929 
L 625.935156 212.700879 
L 632.328906 212.622646 
L 638.722656 213.620658 
L 645.116406 215.990039 
L 651.510156 216.034987 
" clip-path="url(#p50dc8161ae)" style="fill: none; stroke: #287da1; stroke-width: 1.5; stroke-linecap: square"/>
   </g>
   <g id="line2d_37">
    <path d="M 44.103906 55.610826 
L 50.497656 55.965765 
L 56.891406 56.25702 
L 63.285156 56.2715 
L 69.678906 56.061682 
L 76.072656 56.061682 
L 82.466406 56.296799 
L 88.860156 56.296798 
L 95.253906 56.461351 
L 101.647656 56.461351 
L 108.041406 56.557003 
L 114.435156 56.557003 
L 120.828906 56.600006 
L 127.222656 56.600006 
L 133.616406 56.600733 
L 140.010156 56.600733 
L 146.403906 56.519768 
L 152.797656 56.519768 
L 159.191406 56.361285 
L 165.585156 56.361285 
L 171.978906 56.037416 
L 178.372656 56.037416 
L 184.766406 55.645891 
L 191.160156 55.645891 
L 197.553906 54.998206 
L 203.947656 54.998206 
L 210.341406 54.454746 
L 216.735156 54.454746 
L 223.128906 54.505906 
L 229.522656 54.505906 
L 235.916406 57.478412 
L 242.310156 57.478412 
L 248.703906 62.361824 
L 255.097656 62.361824 
L 261.491406 67.891459 
L 267.885156 67.891458 
L 274.278906 73.226899 
L 280.672656 73.226899 
L 287.066406 77.650139 
L 293.460156 77.650138 
L 299.853906 81.251066 
L 306.247656 81.251066 
L 312.641406 83.855155 
L 319.035156 82.695276 
L 325.428906 85.108636 
L 331.822656 85.177374 
L 338.216406 86.165962 
L 344.610156 86.181945 
L 351.003906 86.435835 
L 357.397656 83.308692 
L 363.791406 83.04013 
L 370.185156 83.054075 
L 376.578906 81.638496 
L 382.972656 81.858128 
L 389.366406 80.062164 
L 395.760156 80.079778 
L 402.153906 76.965683 
L 408.547656 77.200511 
L 414.941406 73.657931 
L 421.335156 73.678088 
L 427.728906 69.222709 
L 434.122656 69.316167 
L 440.516406 68.258786 
L 446.910156 68.273925 
L 453.303906 62.991175 
L 459.697656 63.094771 
L 466.091406 58.242579 
L 472.485156 58.255643 
L 478.878906 54.528908 
L 485.272656 54.594115 
L 491.666406 56.035176 
L 498.060156 56.045141 
L 504.453906 55.746763 
L 510.847656 55.761204 
L 517.241406 55.760817 
L 523.635156 55.768269 
L 530.028906 55.878792 
L 536.422656 55.902515 
L 542.816406 56.063617 
L 549.210156 56.069436 
L 555.603906 56.275812 
L 561.997656 56.302311 
L 568.391406 56.554924 
L 574.785156 56.559865 
L 581.178906 56.802806 
L 587.572656 56.812703 
L 593.966406 57.180106 
L 600.360156 57.185034 
L 606.753906 55.427356 
L 613.147656 55.49435 
L 619.541406 56.027369 
L 625.935156 56.034248 
L 632.328906 55.958376 
L 638.722656 53.108655 
L 645.116406 53.346214 
L 651.510156 53.354529 
" clip-path="url(#p50dc8161ae)" style="fill: none; stroke: #c25c31; stroke-width: 1.5; stroke-linecap: square"/>
   </g>
   <g id="line2d_38">
    <path d="M 44.103906 55.445495 
L 50.497656 55.581982 
L 56.891406 55.71763 
L 63.285156 55.838065 
L 69.678906 55.940284 
L 76.072656 56.04805 
L 82.466406 56.199437 
L 88.860156 56.346584 
L 95.253906 56.431989 
L 101.647656 56.457059 
L 108.041406 56.556473 
L 114.435156 56.581163 
L 120.828906 56.610166 
L 127.222656 56.608529 
L 133.616406 56.598473 
L 140.010156 56.597618 
L 146.403906 56.552251 
L 152.797656 56.554527 
L 159.191406 56.523943 
L 165.585156 56.388302 
L 171.978906 56.232516 
L 178.372656 56.083123 
L 184.766406 55.847694 
L 191.160156 55.597007 
L 197.553906 55.232107 
L 203.947656 54.794703 
L 210.341406 54.391663 
L 216.735156 53.859929 
L 223.128906 53.961555 
L 229.522656 53.719922 
L 235.916406 56.394699 
L 242.310156 56.511502 
L 248.703906 60.920563 
L 255.097656 61.301616 
L 261.491406 66.863088 
L 267.885156 67.278825 
L 274.278906 72.589001 
L 280.672656 72.857628 
L 287.066406 77.269647 
L 293.460156 77.649024 
L 299.853906 81.225346 
L 306.247656 81.501587 
L 312.641406 84.047852 
L 319.035156 82.368776 
L 325.428906 84.61736 
L 331.822656 84.723005 
L 338.216406 85.645232 
L 344.610156 85.674421 
L 351.003906 85.817691 
L 357.397656 85.848363 
L 363.791406 85.374895 
L 370.185156 85.303068 
L 376.578906 83.586341 
L 382.972656 83.490239 
L 389.366406 81.55587 
L 395.760156 81.443358 
L 402.153906 78.42802 
L 408.547656 78.301154 
L 414.941406 75.721249 
L 421.335156 75.484738 
L 427.728906 71.682829 
L 434.122656 71.432913 
L 440.516406 66.749649 
L 446.910156 66.383323 
L 453.303906 61.282256 
L 459.697656 60.796986 
L 466.091406 56.095725 
L 472.485156 55.772906 
L 478.878906 54.417434 
L 485.272656 54.068363 
L 491.666406 53.149004 
L 498.060156 55.338119 
L 504.453906 55.136084 
L 510.847656 55.128649 
L 517.241406 55.159875 
L 523.635156 55.19625 
L 530.028906 55.176699 
L 536.422656 55.209946 
L 542.816406 55.202148 
L 549.210156 55.292787 
L 555.603906 55.45782 
L 561.997656 55.623039 
L 568.391406 55.64308 
L 574.785156 55.803308 
L 581.178906 56.129916 
L 587.572656 56.184524 
L 593.966406 56.313894 
L 600.360156 56.638936 
L 606.753906 56.836513 
L 613.147656 56.985873 
L 619.541406 57.145792 
L 625.935156 57.273565 
L 632.328906 57.206575 
L 638.722656 57.220771 
L 645.116406 55.536908 
L 651.510156 55.802809 
" clip-path="url(#p50dc8161ae)" style="fill: none; stroke-dasharray: 5.55,2.4; stroke-dashoffset: 0; stroke: #232f40; stroke-width: 1.5"/>
   </g>
   <g id="line2d_39">
    <path d="M 44.103906 207.141681 
L 50.497656 209.007724 
L 56.891406 210.857041 
L 63.285156 212.468458 
L 69.678906 213.771637 
L 76.072656 215.143688 
L 82.466406 216.919491 
L 88.860156 218.79098 
L 95.253906 219.875533 
L 101.647656 220.193653 
L 108.041406 221.454133 
L 114.435156 221.766921 
L 120.828906 222.134212 
L 127.222656 222.11349 
L 133.616406 221.986145 
L 140.010156 221.975328 
L 146.403906 221.400638 
L 152.797656 221.429481 
L 159.191406 221.041865 
L 165.585156 219.32091 
L 171.978906 217.340529 
L 178.372656 215.437588 
L 184.766406 212.43121 
L 191.160156 209.031914 
L 197.553906 204.017072 
L 203.947656 198.692221 
L 210.341406 193.037052 
L 216.735156 187.798179 
L 223.128906 182.725665 
L 229.522656 179.301137 
L 235.916406 179.261679 
L 242.310156 180.938556 
L 248.703906 185.261171 
L 255.097656 190.759889 
L 261.491406 198.409792 
L 267.885156 204.325103 
L 274.278906 211.340415 
L 280.672656 215.248948 
L 287.066406 222.356804 
L 293.460156 227.585834 
L 299.853906 233.551903 
L 306.247656 237.268746 
L 312.641406 241.240165 
L 319.035156 243.815023 
L 325.428906 246.35372 
L 331.822656 247.820773 
L 338.216406 249.795604 
L 344.610156 250.245065 
L 351.003906 250.749906 
L 357.397656 251.182323 
L 363.791406 251.000463 
L 370.185156 250.045452 
L 376.578906 248.586284 
L 382.972656 247.267217 
L 389.366406 245.56418 
L 395.760156 243.999286 
L 402.153906 241.167439 
L 408.547656 239.447778 
L 414.941406 237.898898 
L 421.335156 234.714927 
L 427.728906 231.157126 
L 434.122656 227.820412 
L 440.516406 222.011776 
L 446.910156 217.770659 
L 453.303906 209.922803 
L 459.697656 204.039777 
L 466.091406 196.53494 
L 472.485156 192.008846 
L 478.878906 186.169215 
L 485.272656 181.238917 
L 491.666406 177.638953 
L 498.060156 174.847774 
L 504.453906 172.467031 
L 510.847656 172.213701 
L 517.241406 172.570285 
L 523.635156 172.967776 
L 530.028906 173.4406 
L 536.422656 173.927432 
L 542.816406 173.813284 
L 549.210156 175.138661 
L 555.603906 177.544216 
L 561.997656 180.056371 
L 568.391406 180.352507 
L 574.785156 182.544402 
L 581.178906 186.946072 
L 587.572656 188.019218 
L 593.966406 189.905836 
L 600.360156 194.240094 
L 606.753906 195.667372 
L 613.147656 197.632144 
L 619.541406 199.855849 
L 625.935156 201.733887 
L 632.328906 200.56003 
L 638.722656 200.804337 
L 645.116406 204.736303 
L 651.510156 208.242025 
" clip-path="url(#p50dc8161ae)" style="fill: none; stroke-dasharray: 5.55,2.4; stroke-dashoffset: 0; stroke: #287da1; stroke-width: 1.5"/>
   </g>
   <g id="line2d_40">
    <path d="M 44.103906 55.445495 
L 50.497656 55.581982 
L 56.891406 55.71763 
L 63.285156 55.838065 
L 69.678906 55.940284 
L 76.072656 56.04805 
L 82.466406 56.199437 
L 88.860156 56.346584 
L 95.253906 56.431989 
L 101.647656 56.457059 
L 108.041406 56.556473 
L 114.435156 56.581163 
L 120.828906 56.610166 
L 127.222656 56.608529 
L 133.616406 56.598473 
L 140.010156 56.597618 
L 146.403906 56.552251 
L 152.797656 56.554527 
L 159.191406 56.523943 
L 165.585156 56.388302 
L 171.978906 56.232516 
L 178.372656 56.083123 
L 184.766406 55.847694 
L 191.160156 55.597007 
L 197.553906 55.232107 
L 203.947656 54.794703 
L 210.341406 54.391663 
L 216.735156 53.859929 
L 223.128906 53.961555 
L 229.522656 53.719922 
L 235.916406 56.394699 
L 242.310156 56.511502 
L 248.703906 60.920563 
L 255.097656 61.301616 
L 261.491406 66.863088 
L 267.885156 67.278825 
L 274.278906 72.589001 
L 280.672656 72.857628 
L 287.066406 77.269647 
L 293.460156 77.649024 
L 299.853906 81.225346 
L 306.247656 81.501587 
L 312.641406 84.047852 
L 319.035156 82.368776 
L 325.428906 84.61736 
L 331.822656 84.723005 
L 338.216406 85.645232 
L 344.610156 85.674421 
L 351.003906 85.817691 
L 357.397656 85.848363 
L 363.791406 85.374895 
L 370.185156 85.303068 
L 376.578906 83.586341 
L 382.972656 83.490239 
L 389.366406 81.55587 
L 395.760156 81.443358 
L 402.153906 78.42802 
L 408.547656 78.301154 
L 414.941406 75.721249 
L 421.335156 75.484738 
L 427.728906 71.682829 
L 434.122656 71.432913 
L 440.516406 66.749649 
L 446.910156 66.383323 
L 453.303906 61.282256 
L 459.697656 60.796986 
L 466.091406 56.095725 
L 472.485156 55.772906 
L 478.878906 54.417434 
L 485.272656 54.068363 
L 491.666406 53.149004 
L 498.060156 55.338119 
L 504.453906 55.136084 
L 510.847656 55.128649 
L 517.241406 55.159875 
L 523.635156 55.19625 
L 530.028906 55.176699 
L 536.422656 55.209946 
L 542.816406 55.202148 
L 549.210156 55.292787 
L 555.603906 55.45782 
L 561.997656 55.623039 
L 568.391406 55.64308 
L 574.785156 55.803308 
L 581.178906 56.129916 
L 587.572656 56.184524 
L 593.966406 56.313894 
L 600.360156 56.638936 
L 606.753906 56.836513 
L 613.147656 56.985873 
L 619.541406 57.145792 
L 625.935156 57.273565 
L 632.328906 57.206575 
L 638.722656 57.220771 
L 645.116406 55.536908 
L 651.510156 55.802809 
" clip-path="url(#p50dc8161ae)" style="fill: none; stroke-dasharray: 5.55,2.4; stroke-dashoffset: 0; stroke: #c25c31; stroke-width: 1.5"/>
   </g>
   <g id="line2d_41">
    <path d="M 44.103906 33.658125 
L 657.903906 33.658125 
" clip-path="url(#p50dc8161ae)" style="fill: none; stroke: #dc143c; stroke-linecap: square"/>
   </g>
   <g id="patch_3">
    <path d="M 44.103906 271.798125 
L 44.103906 22.318125 
" style="fill: none; stroke: #000000; stroke-width: 0.8; stroke-linejoin: miter; stroke-linecap: square"/>
   </g>
   <g id="patch_4">
    <path d="M 657.903906 271.798125 
L 657.903906 22.318125 
" style="fill: none; stroke: #000000; stroke-width: 0.8; stroke-linejoin: miter; stroke-linecap: square"/>
   </g>
   <g id="patch_5">
    <path d="M 44.103906 271.798125 
L 657.903906 271.798125 
" style="fill: none; stroke: #000000; stroke-width: 0.8; stroke-linejoin: miter; stroke-linecap: square"/>
   </g>
   <g id="patch_6">
    <path d="M 44.103906 22.318125 
L 657.903906 22.318125 
" style="fill: none; stroke: #000000; stroke-width: 0.8; stroke-linejoin: miter; stroke-linecap: square"/>
   </g>
   <g id="text_20">
    <text style="font-size: 12px; font-family: 'DejaVu Sans'; text-anchor: middle" x="351.003906" y="16.318125" transform="rotate(-0 351.003906 16.318125)">P5: full canonical objective, Primary and Triplex (all Lines = Triplex)</text>
   </g>
   <g id="legend_1">
    <g id="patch_7">
     <path d="M 326.113906 166.259062 
L 652.303906 166.259062 
Q 653.903906 166.259062 653.903906 164.659063 
L 653.903906 129.457188 
Q 653.903906 127.857188 652.303906 127.857188 
L 326.113906 127.857188 
Q 324.513906 127.857188 324.513906 129.457188 
L 324.513906 164.659063 
Q 324.513906 166.259062 326.113906 166.259062 
z
" style="fill: #ffffff; opacity: 0.8; stroke: #cccccc; stroke-linejoin: miter"/>
    </g>
    <g id="line2d_42">
     <path d="M 327.713906 134.335938 
L 335.713906 134.335938 
L 343.713906 134.335938 
" style="fill: none; stroke: #232f40; stroke-width: 1.5; stroke-linecap: square"/>
    </g>
    <g id="text_21">
     <text style="font-size: 8px; font-family: 'DejaVu Sans'; text-anchor: start" x="350.113906" y="137.135938" transform="rotate(-0 350.113906 137.135938)">Planning all Lines</text>
    </g>
    <g id="line2d_43">
     <path d="M 327.713906 146.336563 
L 335.713906 146.336563 
L 343.713906 146.336563 
" style="fill: none; stroke: #287da1; stroke-width: 1.5; stroke-linecap: square"/>
    </g>
    <g id="text_22">
     <text style="font-size: 8px; font-family: 'DejaVu Sans'; text-anchor: start" x="350.113906" y="149.136563" transform="rotate(-0 350.113906 149.136563)">Planning Primary</text>
    </g>
    <g id="line2d_44">
     <path d="M 327.713906 158.337187 
L 335.713906 158.337187 
L 343.713906 158.337187 
" style="fill: none; stroke: #c25c31; stroke-width: 1.5; stroke-linecap: square"/>
    </g>
    <g id="text_23">
     <text style="font-size: 8px; font-family: 'DejaVu Sans'; text-anchor: start" x="350.113906" y="161.137188" transform="rotate(-0 350.113906 161.137188)">Planning Triplex</text>
    </g>
    <g id="line2d_45">
     <path d="M 435.846406 134.335938 
L 443.846406 134.335938 
L 451.846406 134.335938 
" style="fill: none; stroke-dasharray: 5.55,2.4; stroke-dashoffset: 0; stroke: #232f40; stroke-width: 1.5"/>
    </g>
    <g id="text_24">
     <text style="font-size: 8px; font-family: 'DejaVu Sans'; text-anchor: start" x="458.246406" y="137.135938" transform="rotate(-0 458.246406 137.135938)">Actual all Lines</text>
    </g>
    <g id="line2d_46">
     <path d="M 435.846406 146.336563 
L 443.846406 146.336563 
L 451.846406 146.336563 
" style="fill: none; stroke-dasharray: 5.55,2.4; stroke-dashoffset: 0; stroke: #287da1; stroke-width: 1.5"/>
    </g>
    <g id="text_25">
     <text style="font-size: 8px; font-family: 'DejaVu Sans'; text-anchor: start" x="458.246406" y="149.136563" transform="rotate(-0 458.246406 149.136563)">Actual Primary</text>
    </g>
    <g id="line2d_47">
     <path d="M 534.581406 134.335938 
L 542.581406 134.335938 
L 550.581406 134.335938 
" style="fill: none; stroke-dasharray: 5.55,2.4; stroke-dashoffset: 0; stroke: #c25c31; stroke-width: 1.5"/>
    </g>
    <g id="text_26">
     <text style="font-size: 8px; font-family: 'DejaVu Sans'; text-anchor: start" x="556.981406" y="137.135938" transform="rotate(-0 556.981406 137.135938)">Actual Triplex</text>
    </g>
    <g id="line2d_48">
     <path d="M 534.581406 146.336563 
L 542.581406 146.336563 
L 550.581406 146.336563 
" style="fill: none; stroke: #dc143c; stroke-linecap: square"/>
    </g>
    <g id="text_27">
     <text style="font-size: 8px; font-family: 'DejaVu Sans'; text-anchor: start" x="556.981406" y="149.136563" transform="rotate(-0 556.981406 149.136563)">Original thermal ceiling</text>
    </g>
   </g>
  </g>
 </g>
 <defs>
  <clipPath id="p50dc8161ae">
   <rect x="44.103906" y="22.318125" width="613.8" height="249.48"/>
  </clipPath>
 </defs>
</svg>
